<?xml version="1.0" encoding="UTF-8"?>
<!DOCTYPE svg
PUBLIC "-//W3C//DTD SVG 1.1//EN"
       "http://www.w3.org/Graphics/SVG/1.1/DTD/svg11.dtd">
<svg viewBox="107 1 781 733" width="674px" height="732px" xmlns="http://www.w3.org/2000/svg" version="1.1">
   <line x1="532" y1="366" x2="542" y2="366" style="stroke:#c00;stroke-width:1;"/>
   <line x1="544" y1="52" x2="534" y2="52" style="stroke:#c00;stroke-width:1;"/>
   <line x1="542" y1="366" x2="544" y2="52" style="stroke:#c00;stroke-width:1;"/>
   <line x1="539.5" y1="366" x2="535.96446609407" y2="369.53553390593" style="stroke:#c00;stroke-width:2;"/>
   <line x1="539.5" y1="366" x2="535.96446609407" y2="362.46446609407" style="stroke:#c00;stroke-width:2;"/>
   <line x1="539" y1="52" x2="542.53553390593" y2="55.535533905933" style="stroke:#c00;stroke-width:2;"/>
   <line x1="539" y1="52" x2="542.53553390593" y2="48.464466094067" style="stroke:#c00;stroke-width:2;"/>
   <line x1="305" y1="365" x2="315" y2="365" style="stroke:#0b0;stroke-width:1;"/>
   <line x1="662" y1="325" x2="672" y2="325" style="stroke:#0b0;stroke-width:1;"/>
   <line x1="315" y1="365" x2="662" y2="325" style="stroke:#0b0;stroke-width:1;"/>
   <line x1="312.5" y1="365" x2="308.96446609407" y2="368.53553390593" style="stroke:#0b0;stroke-width:2;"/>
   <line x1="312.5" y1="365" x2="308.96446609407" y2="361.46446609407" style="stroke:#0b0;stroke-width:2;"/>
   <line x1="667" y1="325" x2="663.46446609407" y2="328.53553390593" style="stroke:#0b0;stroke-width:2;"/>
   <line x1="667" y1="325" x2="663.46446609407" y2="321.46446609407" style="stroke:#0b0;stroke-width:2;"/>
   <line x1="181" y1="385" x2="171" y2="385" style="stroke:#cb0;stroke-width:1;"/>
   <line x1="149" y1="550" x2="159" y2="550" style="stroke:#cb0;stroke-width:1;"/>
   <line x1="171" y1="385" x2="149" y2="550" style="stroke:#cb0;stroke-width:1;"/>
   <line x1="173.5" y1="385" x2="177.03553390593" y2="388.53553390593" style="stroke:#cb0;stroke-width:2;"/>
   <line x1="173.5" y1="385" x2="177.03553390593" y2="381.46446609407" style="stroke:#cb0;stroke-width:2;"/>
   <line x1="154" y1="550" x2="150.46446609407" y2="553.53553390593" style="stroke:#cb0;stroke-width:2;"/>
   <line x1="154" y1="550" x2="150.46446609407" y2="546.46446609407" style="stroke:#cb0;stroke-width:2;"/>
   <line x1="305" y1="405" x2="315" y2="405" style="stroke:#0b0;stroke-width:1;"/>
   <line x1="427" y1="246" x2="437" y2="246" style="stroke:#0b0;stroke-width:1;"/>
   <line x1="315" y1="405" x2="427" y2="246" style="stroke:#0b0;stroke-width:1;"/>
   <line x1="312.5" y1="405" x2="308.96446609407" y2="408.53553390593" style="stroke:#0b0;stroke-width:2;"/>
   <line x1="312.5" y1="405" x2="308.96446609407" y2="401.46446609407" style="stroke:#0b0;stroke-width:2;"/>
   <line x1="432" y1="246" x2="428.46446609407" y2="249.53553390593" style="stroke:#0b0;stroke-width:2;"/>
   <line x1="432" y1="246" x2="428.46446609407" y2="242.46446609407" style="stroke:#0b0;stroke-width:2;"/>
   <line x1="438" y1="510" x2="428" y2="510" style="stroke:#333;stroke-width:1;"/>
   <line x1="315" y1="245" x2="305" y2="245" style="stroke:#333;stroke-width:1;"/>
   <line x1="428" y1="510" x2="315" y2="245" style="stroke:#333;stroke-width:1;"/>
   <line x1="430.5" y1="510" x2="434.03553390593" y2="513.53553390593" style="stroke:#333;stroke-width:2;"/>
   <line x1="430.5" y1="510" x2="434.03553390593" y2="506.46446609407" style="stroke:#333;stroke-width:2;"/>
   <line x1="310" y1="245" x2="313.53553390593" y2="248.53553390593" style="stroke:#333;stroke-width:2;"/>
   <line x1="310" y1="245" x2="313.53553390593" y2="241.46446609407" style="stroke:#333;stroke-width:2;"/>
   <line x1="438" y1="530" x2="428" y2="530" style="stroke:#0b0;stroke-width:1;"/>
   <line x1="427" y1="246" x2="437" y2="246" style="stroke:#0b0;stroke-width:1;"/>
   <line x1="428" y1="530" x2="427" y2="246" style="stroke:#0b0;stroke-width:1;"/>
   <line x1="430.5" y1="530" x2="434.03553390593" y2="533.53553390593" style="stroke:#0b0;stroke-width:2;"/>
   <line x1="430.5" y1="530" x2="434.03553390593" y2="526.46446609407" style="stroke:#0b0;stroke-width:2;"/>
   <line x1="432" y1="246" x2="428.46446609407" y2="249.53553390593" style="stroke:#0b0;stroke-width:2;"/>
   <line x1="432" y1="246" x2="428.46446609407" y2="242.46446609407" style="stroke:#0b0;stroke-width:2;"/>
   <line x1="438" y1="688" x2="428" y2="688" style="stroke:#cb0;stroke-width:1;"/>
   <line x1="315" y1="245" x2="305" y2="245" style="stroke:#cb0;stroke-width:1;"/>
   <line x1="428" y1="688" x2="315" y2="245" style="stroke:#cb0;stroke-width:1;"/>
   <line x1="430.5" y1="688" x2="434.03553390593" y2="691.53553390593" style="stroke:#cb0;stroke-width:2;"/>
   <line x1="430.5" y1="688" x2="434.03553390593" y2="684.46446609407" style="stroke:#cb0;stroke-width:2;"/>
   <line x1="310" y1="245" x2="313.53553390593" y2="248.53553390593" style="stroke:#cb0;stroke-width:2;"/>
   <line x1="310" y1="245" x2="313.53553390593" y2="241.46446609407" style="stroke:#cb0;stroke-width:2;"/>
   <line x1="438" y1="708" x2="428" y2="708" style="stroke:#c00;stroke-width:1;"/>
   <line x1="427" y1="246" x2="437" y2="246" style="stroke:#c00;stroke-width:1;"/>
   <line x1="428" y1="708" x2="427" y2="246" style="stroke:#c00;stroke-width:1;"/>
   <line x1="430.5" y1="708" x2="434.03553390593" y2="711.53553390593" style="stroke:#c00;stroke-width:2;"/>
   <line x1="430.5" y1="708" x2="434.03553390593" y2="704.46446609407" style="stroke:#c00;stroke-width:2;"/>
   <line x1="432" y1="246" x2="428.46446609407" y2="249.53553390593" style="stroke:#c00;stroke-width:2;"/>
   <line x1="432" y1="246" x2="428.46446609407" y2="242.46446609407" style="stroke:#c00;stroke-width:2;"/>
   <line x1="671" y1="190" x2="661" y2="190" style="stroke:#bbb;stroke-width:1;"/>
   <line x1="544" y1="52" x2="534" y2="52" style="stroke:#bbb;stroke-width:1;"/>
   <line x1="661" y1="190" x2="544" y2="52" style="stroke:#bbb;stroke-width:1;"/>
   <line x1="663.5" y1="190" x2="667.03553390593" y2="193.53553390593" style="stroke:#bbb;stroke-width:2;"/>
   <line x1="663.5" y1="190" x2="667.03553390593" y2="186.46446609407" style="stroke:#bbb;stroke-width:2;"/>
   <line x1="539" y1="52" x2="542.53553390593" y2="55.535533905933" style="stroke:#bbb;stroke-width:2;"/>
   <line x1="539" y1="52" x2="542.53553390593" y2="48.464466094067" style="stroke:#bbb;stroke-width:2;"/>
   <line x1="441" y1="112" x2="431" y2="112" style="stroke:#b0b;stroke-width:1;"/>
   <line x1="246" y1="46" x2="236" y2="46" style="stroke:#b0b;stroke-width:1;"/>
   <line x1="431" y1="112" x2="246" y2="46" style="stroke:#b0b;stroke-width:1;"/>
   <line x1="433.5" y1="112" x2="437.03553390593" y2="115.53553390593" style="stroke:#b0b;stroke-width:2;"/>
   <line x1="433.5" y1="112" x2="437.03553390593" y2="108.46446609407" style="stroke:#b0b;stroke-width:2;"/>
   <line x1="241" y1="46" x2="244.53553390593" y2="49.535533905933" style="stroke:#b0b;stroke-width:2;"/>
   <line x1="241" y1="46" x2="244.53553390593" y2="42.464466094067" style="stroke:#b0b;stroke-width:2;"/>
   <line x1="441" y1="132" x2="431" y2="132" style="stroke:#0b0;stroke-width:1;"/>
   <line x1="261" y1="142" x2="251" y2="142" style="stroke:#0b0;stroke-width:1;"/>
   <line x1="431" y1="132" x2="261" y2="142" style="stroke:#0b0;stroke-width:1;"/>
   <line x1="433.5" y1="132" x2="437.03553390593" y2="135.53553390593" style="stroke:#0b0;stroke-width:2;"/>
   <line x1="433.5" y1="132" x2="437.03553390593" y2="128.46446609407" style="stroke:#0b0;stroke-width:2;"/>
   <line x1="256" y1="142" x2="259.53553390593" y2="145.53553390593" style="stroke:#0b0;stroke-width:2;"/>
   <line x1="256" y1="142" x2="259.53553390593" y2="138.46446609407" style="stroke:#0b0;stroke-width:2;"/>
   <rect width="95" height="20" x="437" y="216" style="fill:#007;stroke:black;"/>
   <text width="95" height="20" x="442" y="230" style="fill:#fff;" font-family="Arial" font-size="16px"> bloggers</text>
   <rect width="95" height="20" x="437" y="236" style="fill:#aea;stroke:black;"/>
   <text width="95" height="20" x="442" y="250" style="fill:black;" font-family="Arial" font-size="16px">id</text>
   <rect width="95" height="20" x="437" y="256" style="fill:none;stroke:black;"/>
   <text width="95" height="20" x="442" y="270" style="fill:black;" font-family="Arial" font-size="16px">name</text>
   <rect width="95" height="20" x="437" y="276" style="fill:none;stroke:black;"/>
   <text width="95" height="20" x="442" y="290" style="fill:black;" font-family="Arial" font-size="16px">contact</text>
   <rect width="95" height="20" x="437" y="296" style="fill:none;stroke:black;"/>
   <text width="95" height="20" x="442" y="310" style="fill:black;" font-family="Arial" font-size="16px">blood_group</text>
   <rect width="95" height="20" x="437" y="316" style="fill:none;stroke:black;"/>
   <text width="95" height="20" x="442" y="330" style="fill:black;" font-family="Arial" font-size="16px">gender</text>
   <rect width="95" height="20" x="437" y="336" style="fill:none;stroke:black;"/>
   <text width="95" height="20" x="442" y="350" style="fill:black;" font-family="Arial" font-size="16px">birth_date</text>
   <rect width="95" height="20" x="437" y="356" style="fill:none;stroke:black;"/>
   <text width="95" height="20" x="442" y="370" style="fill:black;" font-family="Arial" font-size="16px">login_id</text>
   <rect width="124" height="20" x="181" y="215" style="fill:#007;stroke:black;"/>
   <text width="124" height="20" x="186" y="229" style="fill:#fff;" font-family="Arial" font-size="16px"> blogs</text>
   <rect width="124" height="20" x="181" y="235" style="fill:#aea;stroke:black;"/>
   <text width="124" height="20" x="186" y="249" style="fill:black;" font-family="Arial" font-size="16px">id</text>
   <rect width="124" height="20" x="181" y="255" style="fill:none;stroke:black;"/>
   <text width="124" height="20" x="186" y="269" style="fill:black;" font-family="Arial" font-size="16px">title</text>
   <rect width="124" height="20" x="181" y="275" style="fill:none;stroke:black;"/>
   <text width="124" height="20" x="186" y="289" style="fill:black;" font-family="Arial" font-size="16px">content</text>
   <rect width="124" height="20" x="181" y="295" style="fill:none;stroke:black;"/>
   <text width="124" height="20" x="186" y="309" style="fill:black;" font-family="Arial" font-size="16px">post_time</text>
   <rect width="124" height="20" x="181" y="315" style="fill:none;stroke:black;"/>
   <text width="124" height="20" x="186" y="329" style="fill:black;" font-family="Arial" font-size="16px">comment_count</text>
   <rect width="124" height="20" x="181" y="335" style="fill:none;stroke:black;"/>
   <text width="124" height="20" x="186" y="349" style="fill:black;" font-family="Arial" font-size="16px">bookmark_count</text>
   <rect width="124" height="20" x="181" y="355" style="fill:none;stroke:black;"/>
   <text width="124" height="20" x="186" y="369" style="fill:black;" font-family="Arial" font-size="16px">category_id</text>
   <rect width="124" height="20" x="181" y="375" style="fill:none;stroke:black;"/>
   <text width="124" height="20" x="186" y="389" style="fill:black;" font-family="Arial" font-size="16px">blogstatus_id</text>
   <rect width="124" height="20" x="181" y="395" style="fill:none;stroke:black;"/>
   <text width="124" height="20" x="186" y="409" style="fill:black;" font-family="Arial" font-size="16px">blogged_by</text>
   <rect width="80" height="20" x="159" y="520" style="fill:#007;stroke:black;"/>
   <text width="80" height="20" x="164" y="534" style="fill:#fff;" font-family="Arial" font-size="16px"> blogstatus</text>
   <rect width="80" height="20" x="159" y="540" style="fill:#aea;stroke:black;"/>
   <text width="80" height="20" x="164" y="554" style="fill:black;" font-family="Arial" font-size="16px">id</text>
   <rect width="80" height="20" x="159" y="560" style="fill:none;stroke:black;"/>
   <text width="80" height="20" x="164" y="574" style="fill:black;" font-family="Arial" font-size="16px">status</text>
   <rect width="120" height="20" x="438" y="460" style="fill:#007;stroke:black;"/>
   <text width="120" height="20" x="443" y="474" style="fill:#fff;" font-family="Arial" font-size="16px"> bookmarks</text>
   <rect width="120" height="20" x="438" y="480" style="fill:#aea;stroke:black;"/>
   <text width="120" height="20" x="443" y="494" style="fill:black;" font-family="Arial" font-size="16px">id</text>
   <rect width="120" height="20" x="438" y="500" style="fill:none;stroke:black;"/>
   <text width="120" height="20" x="443" y="514" style="fill:black;" font-family="Arial" font-size="16px">blog_id</text>
   <rect width="120" height="20" x="438" y="520" style="fill:none;stroke:black;"/>
   <text width="120" height="20" x="443" y="534" style="fill:black;" font-family="Arial" font-size="16px">bookmarked_by</text>
   <rect width="85" height="20" x="672" y="295" style="fill:#007;stroke:black;"/>
   <text width="85" height="20" x="677" y="309" style="fill:#fff;" font-family="Arial" font-size="16px"> categories</text>
   <rect width="85" height="20" x="672" y="315" style="fill:#aea;stroke:black;"/>
   <text width="85" height="20" x="677" y="329" style="fill:black;" font-family="Arial" font-size="16px">id</text>
   <rect width="85" height="20" x="672" y="335" style="fill:none;stroke:black;"/>
   <text width="85" height="20" x="677" y="349" style="fill:black;" font-family="Arial" font-size="16px">category</text>
   <rect width="111" height="20" x="438" y="598" style="fill:#007;stroke:black;"/>
   <text width="111" height="20" x="443" y="612" style="fill:#fff;" font-family="Arial" font-size="16px"> comments</text>
   <rect width="111" height="20" x="438" y="618" style="fill:#aea;stroke:black;"/>
   <text width="111" height="20" x="443" y="632" style="fill:black;" font-family="Arial" font-size="16px">id</text>
   <rect width="111" height="20" x="438" y="638" style="fill:none;stroke:black;"/>
   <text width="111" height="20" x="443" y="652" style="fill:black;" font-family="Arial" font-size="16px">comment</text>
   <rect width="111" height="20" x="438" y="658" style="fill:none;stroke:black;"/>
   <text width="111" height="20" x="443" y="672" style="fill:black;" font-family="Arial" font-size="16px">comment_time</text>
   <rect width="111" height="20" x="438" y="678" style="fill:none;stroke:black;"/>
   <text width="111" height="20" x="443" y="692" style="fill:black;" font-family="Arial" font-size="16px">blog_id</text>
   <rect width="111" height="20" x="438" y="698" style="fill:none;stroke:black;"/>
   <text width="111" height="20" x="443" y="712" style="fill:black;" font-family="Arial" font-size="16px">commenter_id</text>
   <rect width="95" height="20" x="671" y="20" style="fill:#007;stroke:black;"/>
   <text width="95" height="20" x="676" y="34" style="fill:#fff;" font-family="Arial" font-size="16px"> employees</text>
   <rect width="95" height="20" x="671" y="40" style="fill:#aea;stroke:black;"/>
   <text width="95" height="20" x="676" y="54" style="fill:black;" font-family="Arial" font-size="16px">id</text>
   <rect width="95" height="20" x="671" y="60" style="fill:none;stroke:black;"/>
   <text width="95" height="20" x="676" y="74" style="fill:black;" font-family="Arial" font-size="16px">name</text>
   <rect width="95" height="20" x="671" y="80" style="fill:none;stroke:black;"/>
   <text width="95" height="20" x="676" y="94" style="fill:black;" font-family="Arial" font-size="16px">contact</text>
   <rect width="95" height="20" x="671" y="100" style="fill:none;stroke:black;"/>
   <text width="95" height="20" x="676" y="114" style="fill:black;" font-family="Arial" font-size="16px">blood_group</text>
   <rect width="95" height="20" x="671" y="120" style="fill:none;stroke:black;"/>
   <text width="95" height="20" x="676" y="134" style="fill:black;" font-family="Arial" font-size="16px">gender</text>
   <rect width="95" height="20" x="671" y="140" style="fill:none;stroke:black;"/>
   <text width="95" height="20" x="676" y="154" style="fill:black;" font-family="Arial" font-size="16px">birth_date</text>
   <rect width="95" height="20" x="671" y="160" style="fill:none;stroke:black;"/>
   <text width="95" height="20" x="676" y="174" style="fill:black;" font-family="Arial" font-size="16px">salary</text>
   <rect width="95" height="20" x="671" y="180" style="fill:none;stroke:black;"/>
   <text width="95" height="20" x="676" y="194" style="fill:black;" font-family="Arial" font-size="16px">login_id</text>
   <rect width="93" height="20" x="441" y="22" style="fill:#007;stroke:black;"/>
   <text width="93" height="20" x="446" y="36" style="fill:#fff;" font-family="Arial" font-size="16px"> logins</text>
   <rect width="93" height="20" x="441" y="42" style="fill:#aea;stroke:black;"/>
   <text width="93" height="20" x="446" y="56" style="fill:black;" font-family="Arial" font-size="16px">id</text>
   <rect width="93" height="20" x="441" y="62" style="fill:none;stroke:black;"/>
   <text width="93" height="20" x="446" y="76" style="fill:black;" font-family="Arial" font-size="16px">email</text>
   <rect width="93" height="20" x="441" y="82" style="fill:none;stroke:black;"/>
   <text width="93" height="20" x="446" y="96" style="fill:black;" font-family="Arial" font-size="16px">password</text>
   <rect width="93" height="20" x="441" y="102" style="fill:none;stroke:black;"/>
   <text width="93" height="20" x="446" y="116" style="fill:black;" font-family="Arial" font-size="16px">usertype_id</text>
   <rect width="93" height="20" x="441" y="122" style="fill:none;stroke:black;"/>
   <text width="93" height="20" x="446" y="136" style="fill:black;" font-family="Arial" font-size="16px">regstatus_id</text>
   <rect width="129" height="20" x="122" y="112" style="fill:#007;stroke:black;"/>
   <text width="129" height="20" x="127" y="126" style="fill:#fff;" font-family="Arial" font-size="16px"> registrationstatus</text>
   <rect width="129" height="20" x="122" y="132" style="fill:#aea;stroke:black;"/>
   <text width="129" height="20" x="127" y="146" style="fill:black;" font-family="Arial" font-size="16px">id</text>
   <rect width="129" height="20" x="122" y="152" style="fill:none;stroke:black;"/>
   <text width="129" height="20" x="127" y="166" style="fill:black;" font-family="Arial" font-size="16px">status</text>
   <rect width="75" height="20" x="161" y="16" style="fill:#007;stroke:black;"/>
   <text width="75" height="20" x="166" y="30" style="fill:#fff;" font-family="Arial" font-size="16px"> usertypes</text>
   <rect width="75" height="20" x="161" y="36" style="fill:#aea;stroke:black;"/>
   <text width="75" height="20" x="166" y="50" style="fill:black;" font-family="Arial" font-size="16px">id</text>
   <rect width="75" height="20" x="161" y="56" style="fill:none;stroke:black;"/>
   <text width="75" height="20" x="166" y="70" style="fill:black;" font-family="Arial" font-size="16px">type</text>
</svg>
